<svg height='100px' width='100px'  fill="#000000" xmlns="http://www.w3.org/2000/svg" xmlns:xlink="http://www.w3.org/1999/xlink" version="1.1" x="0px" y="0px" viewBox="0 0 90 90" style="enable-background:new 0 0 90 90;" xml:space="preserve"><g><path d="M44.9999504,13.0388002c-6.6640015,0-13.4101009,1.8197994-13.4101009,5.2983999   c0,0.0443993,0.0029011,0.0893002,0.0087013,0.1333008c1.3379002,9.9403992,6.2568989,42.3740005,13.4013996,42.3740005   c7.1455002,0,12.0634995-32.4336014,13.4013977-42.3740005c0.0058022-0.0440006,0.0088005-0.0889015,0.0088005-0.1333008   C58.4101486,14.8585997,51.6640511,13.0388002,44.9999504,13.0388002z"></path><path d="M48.8593483,63.2873993h-7.7178001c-1.6425972,0-2.9784966,1.3358994-2.9784966,2.9780045v7.7177963   c0,1.6419983,1.3358994,2.9779968,2.9784966,2.9779968h7.7178001c1.642601,0,2.9785004-1.3359985,2.9785004-2.9779968v-7.7177963   C51.8378487,64.6232986,50.5019493,63.2873993,48.8593483,63.2873993z"></path></g></svg>