<?xml version="1.0" encoding="utf-8"?>
<!-- Generator: Adobe Illustrator 12.0.0, SVG Export Plug-In . SVG Version: 6.00 Build 51448)  -->
<!DOCTYPE svg PUBLIC "-//W3C//DTD SVG 1.1//EN" "http://www.w3.org/Graphics/SVG/1.1/DTD/svg11.dtd" [
	<!ENTITY ns_svg "http://www.w3.org/2000/svg">
	<!ENTITY ns_xlink "http://www.w3.org/1999/xlink">
]>
<svg  version="1.1" id="Layer_1" xmlns="&ns_svg;" xmlns:xlink="&ns_xlink;" width="300" height="72.648" viewBox="0 0 300 72.648"
	 overflow="visible" enable-background="new 0 0 300 72.648" xml:space="preserve">
<path fill="#FFFFFF" d="M136.932,29.399l16.951-21.542h-46.39C99.007,20.75,91.083,33.9,82.595,45.935l-0.27-0.271L58.555,7.857
	H11.387l45.369,56.555h51.866L136.932,29.399"/>
<path fill="#FFFFFF" d="M220.468,40.6c7.144,0.037,14.155,0.008,21.489,0.008c0,4.42,0.697,9.377-0.701,13.281
	c-1.18,1.998-3.005,3.682-5.261,4.196c-10.826-0.094-21.143,0.042-32.663,0c-2.607-0.409-5.186-3.271-5.724-5.702v-30.83l0.7-3.315
	c0.967-1.735,2.954-3.222,4.783-3.862h31.371l2.524,0.328c3.278,1.302,4.7,4.37,5.051,7.757h37.119
	c-0.026-2.955-0.564-6.086-1.773-8.573c-1.665-3.208-5.587-5.582-9.023-6.03h-82.624c0,0-12.302-0.747-19.419,1.104
	c-3.546,1.659-5.99,5.505-6.15,9.327l-0.134,29.036c0.428,4.066-1.021,8.937,1.771,11.979c2.445,3.787,6.688,4.672,10.8,5.107h89.82
	c3.41-0.032,7.035,0.425,9.911-1.072c3.84-1.834,6.311-5.664,6.93-9.853l0.081-19.123H220.44L220.468,40.6"/>
<path fill="#EC2027" d="M279.265,53.487c-0.619,4.188-3.09,8.019-6.93,9.853c-2.876,1.497-6.501,1.04-9.911,1.072h-89.82
	c-4.111-0.436-8.354-1.32-10.8-5.107c-2.791-3.043-1.343-7.913-1.771-11.979l0.134-29.036c0.16-3.822,2.604-7.668,6.15-9.327
	c7.117-1.851,19.419-1.104,19.419-1.104h82.624c3.437,0.448,7.358,2.822,9.023,6.03c1.209,2.487,1.747,5.619,1.773,8.573h-37.119
	c-0.351-3.387-1.772-6.456-5.051-7.757l-2.524-0.328h-31.371c-1.829,0.64-3.816,2.127-4.783,3.862l-0.7,3.315v30.83
	c0.538,2.432,3.116,5.293,5.724,5.702c11.521,0.042,21.837-0.094,32.663,0c2.256-0.515,4.081-2.198,5.261-4.196
	c1.398-3.904,0.701-8.861,0.701-13.281c-7.334,0-14.346,0.029-21.489-0.008l-0.027-6.235h58.905L279.265,53.487 M11.387,7.857
	h47.168l23.771,37.807l0.27,0.271C91.083,33.9,99.007,20.75,107.493,7.857h46.39l-16.951,21.542l-28.31,35.013H56.755L11.387,7.857
	 M0,0v72.648h300V0H0"/>
</svg>
